<svg width="87" height="88" viewBox="0 0 87 88" fill="none" xmlns="http://www.w3.org/2000/svg">
<path d="M65.9919 8.53069C64.6948 8.13039 63.5898 9.5448 64.2891 10.7084L66.5203 14.4285L62.2981 17.2414L63.1681 17.8765C70.7639 23.4008 68.6554 34.4599 61.8283 40.9022C61.8283 40.9022 53.6348 38.3562 44 38.3562C34.3652 38.3562 30.3085 39.7279 26.1663 40.9075V40.9022L24.0152 38.7512C17.5564 32.2929 18.3144 22.6162 25.7019 17.2414L21.4797 14.4285L23.7163 10.7084C24.4155 9.5448 23.3052 8.13039 22.0081 8.53069C13.3288 11.1994 7.40385 19.2162 7.40385 28.2952V29.2986C7.40385 36.6002 12.4748 45.7432 18.6667 49.6129V67.9096C18.6667 78.0133 26.8549 86.2063 36.9647 86.2063H51.0353C61.1451 86.2063 69.3333 78.0133 69.3333 67.9096V49.6129C75.5252 45.7432 80.5962 36.6002 80.5962 29.2986V28.3005C80.5962 19.2162 74.6712 11.1994 65.9919 8.53069Z" fill="white"/>
<path d="M62.1967 42.6742C61.7536 44.617 60.1416 45.914 58.3801 45.914C58.0759 45.914 57.7663 45.8713 57.4513 45.7859C54.8785 45.1081 49.7008 43.9819 44 43.9819C37.0181 43.9819 33.4631 44.8679 30.6661 45.7165C28.5897 46.3357 26.4172 45.0227 25.846 42.7756C25.6485 42.0017 25.6592 41.2118 25.8567 40.4805C26.3425 41.1264 35.0591 38.3562 44 38.3562C48.4678 38.3562 52.6153 38.986 55.6365 39.6212C58.6523 40.267 61.6469 41.1424 62.1433 40.4912C62.3408 41.1851 62.3675 41.927 62.1967 42.6742Z" fill="white"/>
<path d="M38.3686 66.5005C38.3686 71.1654 35.2193 74.9443 31.3333 74.9443C27.4474 74.9443 24.2927 71.1654 24.2927 66.5005C24.2927 61.8356 27.4474 58.0567 31.3333 58.0567C35.2193 58.0567 38.3686 61.8356 38.3686 66.5005Z" fill="black"/>
<path d="M63.7073 66.5005C63.7073 71.1654 60.5526 74.9443 56.6667 74.9443C52.7807 74.9443 49.6314 71.1654 49.6314 66.5005C49.6314 61.8356 52.7807 58.0567 56.6667 58.0567C60.5526 58.0567 63.7073 61.8356 63.7073 66.5005Z" fill="black"/>
<path d="M51.0353 87.61H36.9647C26.0969 87.61 17.2575 78.7712 17.2575 67.9096V50.3708C10.9909 46.0475 6 36.787 6 29.2986V28.2952C6 18.5384 12.2666 10.0572 21.5918 7.18567L21.784 7.12695C22.9049 6.78536 24.1006 7.15898 24.8212 8.08235C25.5471 9.00573 25.6272 10.2547 25.0187 11.2688L23.38 14.0016L24.8639 14.9943C25.6165 15.496 26.0756 16.302 26.1129 17.2094C26.1556 18.1114 25.7767 18.96 25.0721 19.5258C24.7358 19.798 24.4262 20.0489 24.2821 20.1983C22.227 22.2852 21.1701 25.0927 21.2288 28.3165C21.3036 32.3303 23.1077 36.4828 26.0969 39.5785C28.5203 38.874 35.8705 36.9472 44 36.9472C51.9427 36.9472 59.4423 38.97 61.9031 39.7066C64.8869 36.6109 66.6911 32.4317 66.7712 28.3806C66.8299 25.1248 65.773 22.2959 63.7179 20.1983C63.5685 20.0489 63.2642 19.798 62.9279 19.5258C62.2233 18.9547 61.8444 18.1114 61.8871 17.2094C61.9244 16.302 62.3835 15.496 63.1361 14.9943L64.6254 14.0016L62.9813 11.2688C62.3781 10.2547 62.4529 9.01107 63.1788 8.08235C63.9048 7.15898 65.0951 6.78002 66.2214 7.12695L66.4029 7.18033C66.4082 7.18567 66.4082 7.18567 66.4082 7.18567C75.7334 10.0572 82 18.5384 82 28.2952V29.2986C82 36.787 77.0091 46.0475 70.7425 50.3708V67.9096C70.7425 78.7712 61.9031 87.61 51.0353 87.61ZM22.606 9.81702L22.4192 9.87573C14.2843 12.379 8.81304 19.782 8.81304 28.2952V29.2986C8.81304 36.0718 13.6651 44.8305 19.414 48.4173C19.825 48.6788 20.0705 49.1272 20.0705 49.6129V67.9096C20.0705 77.2234 27.6502 84.7972 36.9647 84.7972H51.0353C60.3498 84.7972 67.9295 77.2234 67.9295 67.9096V49.6129C67.9295 49.1272 68.175 48.6788 68.586 48.4173C74.3349 44.8305 79.187 36.0718 79.187 29.2986V28.2952C79.187 19.782 73.721 12.379 65.5808 9.87573L65.3994 9.81702L67.7266 13.7027C68.1163 14.3485 67.9295 15.1811 67.2996 15.5974L64.6948 17.3375C65.1378 17.6897 65.5381 18.0367 65.725 18.2235C68.3245 20.8708 69.6589 24.4042 69.5842 28.4286C69.4881 33.4778 67.1235 38.6765 63.2589 42.3219C62.8799 42.6795 62.3408 42.8023 61.855 42.6368C61.7643 42.6102 53.0316 39.76 44 39.76C34.7175 39.76 26.2197 42.4821 26.1396 42.5088C25.6485 42.6689 25.1094 42.5461 24.7358 42.1938C20.8712 38.5377 18.5065 33.3711 18.4158 28.3646C18.3411 24.3722 19.6755 20.8655 22.275 18.2235C22.4619 18.0367 22.8622 17.6897 23.3052 17.3375L20.7004 15.5974C20.0759 15.1811 19.8837 14.3485 20.2734 13.7027L22.606 9.81702Z" fill="black"/>
</svg>
