<svg width="84" height="89" viewBox="0 0 84 89" fill="none" xmlns="http://www.w3.org/2000/svg">
<g filter="url(#filter0_d_4_4)">
<path d="M20.658 0.000514008C20.3666 -0.00498333 20.0752 0.0335008 19.7839 0.121464H19.7784L19.5969 0.17644C10.3333 3.02424 4 11.6006 4 21.293V22.2936C4 29.9684 8.86545 38.8252 15.2593 43.2343V60.9039C15.2593 71.7673 24.0995 80.6076 34.963 80.6076H49.037C59.9005 80.6076 68.7407 71.7673 68.7407 60.9039V43.2343C75.1345 38.8252 80 29.9684 80 22.2936V21.293C80 11.6006 73.6667 3.02424 64.4031 0.17644L64.2216 0.121464H64.2161C63.0506 -0.235885 61.8356 0.236914 61.1759 1.07256C60.5217 1.91371 60.3513 3.21116 60.978 4.25572L62.6218 6.99357L61.1319 7.98865C59.5816 9.02222 59.4771 11.3477 60.923 12.5187C61.3024 12.8211 61.6707 13.1455 61.7147 13.1895C64.2601 15.7844 65.1343 19.3304 64.6395 23.0303C64.1777 26.5159 62.3799 30.0014 59.752 32.7007C58.3941 32.2719 50.8513 29.9409 42 29.9409C32.9563 29.9409 25.5894 32.1565 24.248 32.5743C21.6201 29.8749 19.8223 26.4059 19.355 22.9534C18.8657 19.2864 19.7399 15.7789 22.2798 13.1895C22.3293 13.1455 22.6976 12.8211 23.0715 12.5187C24.5229 11.3477 24.4184 9.01672 22.8681 7.98315L21.3782 6.99357L23.0165 4.25572C23.6487 3.21116 23.4783 1.91371 22.8241 1.07256C22.3348 0.445827 21.5266 0.0225062 20.658 0.000514008ZM20.603 2.81533L18.272 6.70219C17.8872 7.34542 18.0741 8.17557 18.7008 8.5934L21.3012 10.3252C20.8999 10.655 20.5645 10.9244 20.2731 11.2213C17.057 14.4924 15.985 18.973 16.5677 23.3272C17.1505 27.6869 19.344 31.9806 22.7361 35.1857C23.1154 35.5376 23.6487 35.6585 24.1435 35.4991C24.1435 35.4991 32.6429 32.7557 42.0055 32.7557C51.0877 32.7557 59.851 35.631 59.851 35.631C60.3403 35.7959 60.8845 35.675 61.2584 35.3176C64.656 32.1125 66.8495 27.7858 67.4323 23.4042C68.015 19.0225 66.9485 14.5034 63.7269 11.2213C63.7269 11.2213 63.7269 11.2213 63.7269 11.2158C63.4355 10.9244 63.1001 10.655 62.6988 10.3307L65.2992 8.5934C65.9259 8.17557 66.1128 7.34542 65.728 6.6967L63.397 2.80983L63.5784 2.86481H63.5839C71.671 5.36076 77.1852 12.8266 77.1852 21.293V22.2936C77.1852 28.9458 72.2263 37.8906 66.5911 41.4146C66.1788 41.673 65.9259 42.1238 65.9259 42.6076V60.9039C65.9259 70.2499 58.3831 77.7928 49.037 77.7928H34.963C25.6169 77.7928 18.0741 70.2499 18.0741 60.9039V42.6076C18.0741 42.1238 17.8212 41.673 17.4144 41.4146C11.7737 37.8906 6.81481 28.9458 6.81481 22.2881V21.2876C6.81481 12.8266 12.329 5.36076 20.4216 2.86481L20.603 2.81533ZM29.3333 51.052C25.4465 51.052 22.2963 54.8344 22.2963 59.4965C22.2963 64.1585 25.4465 67.9409 29.3333 67.9409C33.2202 67.9409 36.3704 64.1585 36.3704 59.4965C36.3704 54.8344 33.2202 51.052 29.3333 51.052ZM54.6667 51.052C50.7798 51.052 47.6296 54.8344 47.6296 59.4965C47.6296 64.1585 50.7798 67.9409 54.6667 67.9409C58.5535 67.9409 61.7037 64.1585 61.7037 59.4965C61.7037 54.8344 58.5535 51.052 54.6667 51.052Z" fill="black"/>
<path d="M60.923 12.5187C61.3024 12.8211 61.6707 13.1455 61.7147 13.1895M60.923 12.5187L61.2377 12.1302C61.2373 12.1298 61.2368 12.1295 61.2364 12.1291M60.923 12.5187L61.2347 12.1278C61.2352 12.1282 61.2358 12.1286 61.2364 12.1291M60.923 12.5187C59.4771 11.3477 59.5816 9.02222 61.1319 7.98865L62.6218 6.99357L60.978 4.25572C60.3513 3.21116 60.5217 1.91371 61.1759 1.07256C61.8356 0.236914 63.0506 -0.235885 64.2161 0.121464L20.6469 0.500395M61.7147 13.1895L22.43 1.38025C22.4299 1.3802 22.4299 1.38014 22.4298 1.38009M61.7147 13.1895C64.2601 15.7844 65.1343 19.3304 64.6395 23.0303L61.7147 13.1895ZM61.2364 12.1291C61.6174 12.4329 62.0033 12.771 62.0683 12.8359L62.0717 12.8393C64.7472 15.5669 65.6456 19.2783 65.1351 23.0964C64.6574 26.7009 62.804 30.2826 60.1103 33.0495L59.8953 33.2703L59.6015 33.1775C58.2585 32.7535 50.774 30.4409 42 30.4409C33.03 30.4409 25.7189 32.6398 24.3967 33.0517L24.1037 33.1429L23.8897 32.9231C21.1968 30.1569 19.343 26.5921 18.8596 23.0204L18.8594 23.0195C18.3541 19.2326 19.2538 15.5604 21.9229 12.8393L21.9348 12.8271L21.9476 12.8158C21.9997 12.7694 22.3746 12.4393 22.757 12.13L22.7575 12.1296C23.9466 11.1702 23.8596 9.24554 22.5911 8.39946L22.5914 8.39965L22.868 7.98328L22.5907 8.39918L21.1015 7.41007L20.7042 7.14615L20.9491 6.73683L22.5874 3.99898L22.5887 3.99682C23.1043 3.14502 22.9678 2.07226 22.4298 1.38009M61.2364 12.1291C60.0533 11.1694 60.1406 9.25047 61.4093 8.40468L61.4096 8.40444L62.8995 7.40936L63.2958 7.14471L63.0505 6.73619L61.4068 3.99848C61.4067 3.99843 61.4067 3.99839 61.4067 3.99835C60.8955 3.14625 61.0321 2.07316 61.5695 1.38092C62.1121 0.694917 63.1174 0.30757 64.0696 0.599499L64.1412 0.621464H64.1475L64.2561 0.654366C64.2565 0.654472 64.2568 0.654578 64.2572 0.654684C73.3103 3.43826 79.5 11.8204 79.5 21.293V22.2936C79.5 29.7947 74.7232 38.5015 68.4569 42.8227L68.2407 42.9717V43.2343V60.9039C68.2407 71.4912 59.6243 80.1076 49.037 80.1076H34.963C24.3757 80.1076 15.7593 71.4912 15.7593 60.9039V43.2343V42.9717L15.5431 42.8227C9.27681 38.5015 4.5 29.7947 4.5 22.2936V21.293C4.5 11.8204 10.6898 3.43822 19.7429 0.654663C19.7432 0.654564 19.7435 0.654465 19.7439 0.654366L19.8524 0.621464H19.8577L19.9284 0.600128C20.1685 0.527624 20.4074 0.496037 20.6469 0.500395M22.4298 1.38009C22.0332 0.872131 21.366 0.519101 20.6469 0.500395M22.4298 1.38009L20.6469 0.500395M21.6716 2.00562L21.0318 3.07249L18.7011 6.9589C18.701 6.95897 18.701 6.95905 18.7009 6.95912C18.4535 7.37287 18.5728 7.90697 18.978 8.17724C18.978 8.17724 18.978 8.17725 18.978 8.17726C18.978 8.1773 18.9781 8.17733 18.9782 8.17737L21.5784 9.90901L22.14 10.283L21.6187 10.7114C21.5834 10.7404 21.5489 10.7688 21.5151 10.7965C21.155 11.092 20.875 11.3219 20.63 11.5715L20.6297 11.5718C17.5424 14.7119 16.4968 19.0279 17.0633 23.2609L17.0633 23.2609C17.6304 27.5032 19.7677 31.6922 23.0778 34.8206C23.3256 35.0494 23.6698 35.1264 23.9902 35.0232L23.9906 35.023L23.9921 35.0225L23.9973 35.0209L24.017 35.0146L24.0926 34.9909C24.1589 34.9702 24.2565 34.9402 24.3837 34.9022C24.638 34.8261 25.0105 34.7178 25.4863 34.588C26.4377 34.3286 27.8027 33.9832 29.4617 33.6379C32.7771 32.9478 37.2787 32.2557 42.0055 32.2557C46.595 32.2557 51.0942 32.9816 54.4397 33.7047C56.114 34.0665 57.5031 34.4284 58.4745 34.7002C58.9603 34.8362 59.3419 34.9496 59.6028 35.0293C59.7332 35.0691 59.8335 35.1005 59.9015 35.1221L59.9791 35.1469L59.9993 35.1535L60.0047 35.1552L60.0062 35.1557L60.0066 35.1558C60.0068 35.1559 60.0069 35.1559 59.851 35.631L60.0069 35.1559L60.0107 35.1572C60.3237 35.2627 60.6734 35.1851 60.9129 34.9562L60.9153 34.9539C64.2306 31.8264 66.3693 27.6044 66.9367 23.3382C67.5036 19.0758 66.4621 14.7217 63.37 11.5715L63.259 11.4584C63.021 11.2339 62.7467 11.0123 62.4053 10.7364L62.3845 10.7195L61.856 10.2924L62.421 9.91491L65.0214 8.17764L65.0218 8.17737C65.4258 7.90804 65.5477 7.37371 65.2984 6.95255C65.2983 6.9523 65.2981 6.95205 65.298 6.9518L62.9682 3.06699L62.3016 1.95542L63.542 2.33132L63.6525 2.36481H63.6593L63.7314 2.38705C72.0279 4.94763 77.6852 12.6071 77.6852 21.293V22.2936C77.6852 25.7302 76.4093 29.7135 74.4387 33.2695C72.4681 36.8256 69.7675 40.0179 66.8563 41.8385M21.6716 2.00562L66.5911 41.4146M21.6716 2.00562L20.4714 2.33295L20.29 2.38243L20.2821 2.38459L20.2742 2.38702C11.9723 4.94754 6.31481 12.607 6.31481 21.2876V22.2881C6.31481 25.7274 7.59067 29.7121 9.56203 33.2689C11.533 36.8249 14.2342 40.0167 17.1476 41.8375M21.6716 2.00562L17.4144 41.4146M66.8563 41.8385L66.5911 41.4146M66.8563 41.8385C66.8564 41.8384 66.8565 41.8383 66.8567 41.8383L66.5911 41.4146M66.8563 41.8385C66.5876 42.0071 66.4259 42.299 66.4259 42.6076V60.9039C66.4259 70.5261 58.6592 78.2928 49.037 78.2928H34.963C25.3408 78.2928 17.5741 70.5261 17.5741 60.9039V42.6076C17.5741 42.2987 17.412 42.006 17.1476 41.8375M66.5911 41.4146C66.1788 41.673 65.9259 42.1238 65.9259 42.6076V60.9039C65.9259 70.2499 58.3831 77.7928 49.037 77.7928H34.963C25.6169 77.7928 18.0741 70.2499 18.0741 60.9039V42.6076C18.0741 42.1238 17.8212 41.673 17.4144 41.4146M17.1476 41.8375C17.1482 41.8378 17.1488 41.8382 17.1494 41.8386L17.4144 41.4146M17.1476 41.8375C17.1471 41.8372 17.1467 41.8369 17.1463 41.8366L17.4144 41.4146M64.1166 3.03765L63.8258 2.55267L63.6472 2.65978L63.6391 2.66465L63.5839 2.84667L64.1166 3.03765ZM64.1166 3.03765C63.9403 2.97763 63.7628 2.92001 63.5839 2.86481L64.1166 3.03765ZM62.6988 10.3307L63.1343 10.0397C63.1086 10.019 63.0829 9.99819 63.0569 9.97723L63.0131 9.94179L62.6988 10.3307ZM62.6988 10.3307L62.9765 10.7464L63.1047 10.6608C62.9872 10.5637 62.8634 10.4637 62.7325 10.3579L62.6988 10.3307ZM20.5611 3.34501L20.5531 3.34719L20.469 3.03874L20.22 3.4539C20.3332 3.4166 20.4469 3.38029 20.5611 3.34501ZM20.5611 3.34501C20.5637 3.34421 20.5663 3.3434 20.5689 3.3426L20.4731 3.03191L20.603 2.81533M20.5611 3.34501L20.7346 3.29771L20.603 2.81533M20.603 2.81533L20.37 2.67557L20.3617 2.67061L20.1742 2.55817L19.8862 3.03844C20.0634 2.97814 20.2418 2.92025 20.4216 2.86481L20.603 2.81533ZM22.7963 59.4965C22.7963 55.0212 25.8042 51.552 29.3333 51.552C32.8625 51.552 35.8704 55.0212 35.8704 59.4965C35.8704 63.9717 32.8625 67.4409 29.3333 67.4409C25.8042 67.4409 22.7963 63.9717 22.7963 59.4965ZM48.1296 59.4965C48.1296 55.0212 51.1375 51.552 54.6667 51.552C58.1958 51.552 61.2037 55.0212 61.2037 59.4965C61.2037 63.9717 58.1958 67.4409 54.6667 67.4409C51.1375 67.4409 48.1296 63.9717 48.1296 59.4965Z" stroke="black"/>
</g>
<defs>
<filter id="filter0_d_4_4" x="0" y="0" width="84" height="88.6076" filterUnits="userSpaceOnUse" color-interpolation-filters="sRGB">
<feFlood flood-opacity="0" result="BackgroundImageFix"/>
<feColorMatrix in="SourceAlpha" type="matrix" values="0 0 0 0 0 0 0 0 0 0 0 0 0 0 0 0 0 0 127 0" result="hardAlpha"/>
<feOffset dy="4"/>
<feGaussianBlur stdDeviation="2"/>
<feComposite in2="hardAlpha" operator="out"/>
<feColorMatrix type="matrix" values="0 0 0 0 0 0 0 0 0 0 0 0 0 0 0 0 0 0 0.25 0"/>
<feBlend mode="normal" in2="BackgroundImageFix" result="effect1_dropShadow_4_4"/>
<feBlend mode="normal" in="SourceGraphic" in2="effect1_dropShadow_4_4" result="shape"/>
</filter>
</defs>
</svg>
