<svg width="89" height="103" viewBox="0 0 89 103" fill="none" xmlns="http://www.w3.org/2000/svg">
<path d="M88.8833 0.0731441C54.3884 -1.07391 26.1342 11.6497 26.1342 11.6497L26.1136 76.2193C22.6014 74.8251 18.3304 74.4946 13.9924 75.549C4.63988 77.8214 -1.48459 85.6603 0.31321 93.0605C2.11101 100.461 11.1495 104.619 20.5009 102.347C29.319 100.204 35.2643 93.112 34.4087 86.1072V37.862C34.4087 37.862 54.3884 30.8767 80.3041 29.1253V65.0082C76.83 63.6779 72.6403 63.3762 68.3816 64.411C59.0291 66.6825 52.9046 74.5213 54.7024 81.9226C56.4992 89.3228 65.5376 93.4796 74.8901 91.2082C83.0564 89.224 88.7608 82.9945 88.8802 76.521L88.8833 76.5251C88.8833 76.523 88.8833 13.1788 88.8833 0.0731441Z" fill="#202020"/>
</svg>
